<svg width="60" height="60" viewBox="0 0 60 60" fill="none" xmlns="http://www.w3.org/2000/svg">
<path d="M33.6094 58.7109C19.7695 58.7109 8.50781 47.4492 8.50781 33.6094C8.50781 32.2852 9.57422 31.2187 10.8984 31.2187H31.207V10.9102C31.207 9.58594 32.2734 8.51953 33.5977 8.51953C47.4375 8.51953 58.6992 19.7812 58.6992 33.6211C58.7109 47.4492 47.4492 58.7109 33.6094 58.7109ZM13.4414 36C14.625 46.0781 23.2266 53.918 33.6094 53.918C44.8125 53.918 53.918 44.8008 53.918 33.6094C53.918 23.2148 46.0781 14.625 36 13.4414V33.6094C36 34.9336 34.9336 36 33.6094 36H13.4414Z" fill="#333399"/>
<path d="M26.3906 28.7812H3.67969C2.35547 28.7812 1.28906 27.7148 1.28906 26.3906C1.28906 12.5508 12.5508 1.28906 26.3906 1.28906C27.7148 1.28906 28.7812 2.35547 28.7812 3.67969V26.3906C28.7812 27.7148 27.7148 28.7812 26.3906 28.7812ZM6.21094 24H23.9883V6.21094C14.707 7.3125 7.3125 14.707 6.21094 24Z" fill="#333399"/>
</svg>
