<svg width="60" height="60" viewBox="0 0 60 60" fill="none" xmlns="http://www.w3.org/2000/svg">
<path d="M26.769 29.9493C26.5626 29.8344 26.3686 29.5546 9.51474 16.5853L10.1825 20.9288C10.3953 22.2942 9.54891 23.6085 8.29909 23.8124C6.8679 24.0591 5.77406 22.8386 5.66736 21.7395L3.97454 10.6038C3.86867 9.94646 4.02073 9.26547 4.37419 8.72329C4.72764 8.18111 5.26414 7.81099 5.8714 7.71094L16.076 5.91721C17.3283 5.70135 18.506 6.62745 18.7053 8.00214C18.9047 9.37683 18.0632 10.6672 16.8109 10.883L11.3441 11.8462C28.041 24.8517 28.5542 25.3126 28.7605 25.4274C29.9016 26.0289 30.3839 27.5376 29.8272 28.7858C29.3538 29.8531 28.0289 30.6437 26.769 29.9493Z" fill="#333399"/>
<path d="M29.5071 34.7555C29.3505 34.9415 29.0512 35.0706 13.0843 49.3106L17.1032 49.7686C18.3674 49.9096 19.3036 51.1495 19.1503 52.5166C18.9864 54.0857 17.6151 54.9088 16.6148 54.7274L6.31623 53.5329C5.7067 53.4686 5.14513 53.1271 4.76006 52.6111C4.37499 52.0952 4.19092 51.4329 4.26456 50.7683L5.40249 39.5714C5.5459 38.1984 6.67915 37.2088 7.94793 37.3664C9.21671 37.5239 10.1331 38.7522 9.98966 40.1251L9.38202 46.1241C25.3392 32.0587 25.8837 31.6427 26.0403 31.4566C26.8768 30.4187 28.3396 30.3149 29.2947 31.2328C30.1121 32.0149 30.4575 33.6175 29.5071 34.7555Z" fill="#333399"/>
<path d="M30.7543 26.3443C30.8952 26.1439 31.1829 25.9866 45.9357 10.2678L41.8954 10.1977C40.6248 10.1787 39.5919 9.03368 39.634 7.65714C39.6704 6.07844 40.9696 5.1268 41.9808 5.2113L52.3359 5.41163C52.9482 5.4171 53.5352 5.7033 53.9605 6.18026C54.3858 6.65722 54.6228 7.29925 54.6032 7.96827L54.3755 19.231C54.3437 20.6123 53.2949 21.707 52.0183 21.672C50.7417 21.6369 49.7296 20.5015 49.7614 19.1202L49.8813 13.0861C35.1241 28.63 34.6154 29.0967 34.4744 29.2971C33.7252 30.4114 32.2764 30.6554 31.2508 29.8328C30.3734 29.1323 29.8997 27.5691 30.7543 26.3443Z" fill="#333399"/>
<path d="M33.8955 31.1108C34.1113 31.2027 34.33 31.4601 52.2863 42.5333L51.2245 38.2841C50.8879 36.9485 51.6099 35.5488 52.8348 35.2101C54.2363 34.8092 55.4363 35.9047 55.643 36.9868L58.3461 47.883C58.5116 48.5256 58.4226 49.2197 58.1205 49.7976C57.8184 50.3755 57.3185 50.802 56.7234 50.9676L46.7337 53.8612C45.5074 54.2121 44.2509 53.4186 43.9268 52.0724C43.6027 50.7262 44.3219 49.3509 45.5482 49L50.8997 47.4476C33.0962 36.3212 32.5434 35.9184 32.3276 35.8266C31.1371 35.352 30.5193 33.9032 30.959 32.6008C31.3323 31.4874 32.5783 30.5568 33.8955 31.1108Z" fill="#333399"/>
</svg>
