<svg width="60" height="60" viewBox="0 0 60 60" fill="none" xmlns="http://www.w3.org/2000/svg">
<circle cx="30" cy="30" r="27.5" stroke="#333399" stroke-width="5"/>
<path d="M26.6999 23.4494L29.7 17.8751L32.7001 23.4494C33.3491 24.6551 34.5116 25.4998 35.8589 25.7443L42.0874 26.8751L37.7131 31.4509C36.7669 32.4406 36.3228 33.8073 36.5065 35.1642L37.3559 41.4373L31.6522 38.6911C30.4185 38.097 28.9815 38.097 27.7478 38.6911L22.0442 41.4373L22.8935 35.1642L20.4161 34.8288L22.8935 35.1642C23.0772 33.8073 22.6332 32.4406 21.687 31.4509L17.3126 26.8751L23.5412 25.7443C24.8884 25.4998 26.051 24.6551 26.6999 23.4494Z" stroke="#333399" stroke-width="5"/>
</svg>
