<svg width="60" height="60" viewBox="0 0 60 60" fill="none" xmlns="http://www.w3.org/2000/svg">
<path d="M5.84771 26.2852C6.08209 26.2266 28.3712 21.0117 48.2696 12.8906L46.6758 16.7695C46.1719 17.9883 46.7579 19.4062 47.9884 19.8867C49.3946 20.4492 50.7657 19.5703 51.1055 18.5742L55.1719 8.625C55.418 8.03906 55.4063 7.37109 55.1602 6.78515C54.9141 6.19922 54.4454 5.73047 53.8477 5.49609L43.8282 1.45312C42.5977 0.960934 41.2032 1.54687 40.711 2.77734C40.2188 4.00781 40.8048 5.40234 42.0352 5.89453L47.4024 8.0625C27.6563 16.2539 5.00396 21.5625 4.76959 21.6211C3.48053 21.9141 2.67193 23.2031 2.97662 24.4922C3.23443 25.5937 4.41803 26.6367 5.84771 26.2852V26.2852Z" fill="#333399"/>
<path d="M56.1211 53.9297V26.0039C56.1211 24.6797 55.0547 23.6133 53.7305 23.6133C52.4062 23.6133 51.3398 24.6797 51.3398 26.0039V53.918H40.1016V29.5781C40.1016 28.2539 39.0352 27.1875 37.7109 27.1875C36.3867 27.1875 35.3203 28.2539 35.3203 29.5781V53.9297H24.082V33.1406C24.082 31.8164 23.0156 30.75 21.6914 30.75C20.3672 30.75 19.3008 31.8164 19.3008 33.1406V53.9297H8.05078V37.8984C8.05078 36.5742 6.98437 35.5078 5.66016 35.5078C4.33594 35.5078 3.26953 36.5742 3.26953 37.8984V53.9648C2.14453 54.1641 1.28906 55.1367 1.28906 56.3203C1.28906 57.6445 2.35547 58.7109 3.67969 58.7109H56.3203C57.6445 58.7109 58.7109 57.6445 58.7109 56.3203C58.7109 54.9961 57.5742 53.8594 56.1211 53.9297V53.9297Z" fill="#333399"/>
</svg>
